<svg width="35" height="35" viewBox="0 0 35 35" fill="none" xmlns="http://www.w3.org/2000/svg">
<circle cx="17.3379" cy="17.2439" r="16.8291" fill="white"/>
<path d="M15.7819 0.0311432C11.5547 0.494397 7.81973 2.2895 5.06916 5.18484C0.639299 9.83185 -1.01104 15.9121 0.610346 21.5145C1.04465 23.0346 2.01458 25.1047 2.92661 26.48C3.80969 27.8119 6.05358 30.0558 7.50125 31.0402C12.6549 34.587 19.2418 35.0792 24.9167 32.3865C26.8855 31.4455 27.9713 30.6927 29.5203 29.2016C32.8933 25.9154 34.674 21.7896 34.674 17.215C34.674 15.2461 34.5292 14.2328 34.008 12.4377C32.6762 7.81959 29.5782 4.05566 25.3365 1.92759C24.0191 1.27614 22.0937 0.595732 20.7329 0.320675C19.6037 0.089048 16.7953 -0.0701936 15.7819 0.0311432ZM21.2251 1.86968C27.9568 3.62136 32.4735 8.78953 33.2408 15.637C33.5303 18.2718 33.0236 21.3119 31.851 23.7295C30.0559 27.4789 26.5815 30.5045 22.5136 31.8654C19.2997 32.9366 15.2463 32.9366 12.1193 31.8798C6.74846 30.0413 2.65156 25.3364 1.59476 19.7339C0.711682 15.0435 2.46336 9.73052 6.15491 6.01001C8.10926 4.04118 10.2084 2.81066 12.8866 2.0434C14.8699 1.47881 15.4634 1.40643 17.7363 1.46433C19.3866 1.49329 20.1249 1.58015 21.2251 1.86968Z" fill="black"/>
<path d="M13.8569 7.42866L13.9003 8.26831H17.6643H21.4282L21.4716 7.42866L21.5151 6.60349H17.6643H13.8135L13.8569 7.42866Z" fill="black"/>
<path d="M10.4835 11.5546C9.73071 12.3797 8.22513 14.0156 7.13938 15.2027L5.1416 17.3597L5.96677 18.2428C6.41555 18.7205 7.92112 20.3564 9.32536 21.8475L11.8733 24.5691L13.2196 23.1504C13.9579 22.3686 14.7541 21.4856 15.0002 21.1815L15.449 20.6459H13.9289C12.5826 20.6459 12.3944 20.6749 12.1483 20.9499L11.8733 21.2539L11.3666 20.6749C11.0915 20.3564 10.2808 19.4733 9.57147 18.706L8.29752 17.3163L10.0637 15.4054C11.0481 14.3486 11.8877 13.4655 11.9456 13.4365C12.0035 13.422 14.508 15.8976 17.5336 18.9666L23.0203 24.5257L26.2052 20.9934C27.9568 19.068 29.39 17.3887 29.39 17.2728C29.39 17.0846 23.4836 10.4978 23.194 10.353C23.1361 10.324 21.978 11.4967 20.6316 12.9733L18.1851 15.6515L19.3722 15.6949L20.5593 15.7383L21.0515 15.1882C21.3265 14.8842 21.9056 14.2617 22.3254 13.7984L23.1072 12.9443L24.3666 14.3051C25.0615 15.0434 25.988 16.0279 26.4078 16.4766L27.1751 17.3018L25.1049 19.5602C23.9758 20.7907 22.9913 21.7896 22.9334 21.7751C22.8755 21.7461 21.7608 20.588 20.4579 19.1838C17.2152 15.6949 11.9312 10.0779 11.8733 10.0779C11.8443 10.0779 11.2218 10.7439 10.4835 11.5546Z" fill="black"/>
<path d="M13.8271 27.1604V28.029H17.6635H21.5143L21.4708 27.1893L21.4274 26.3642L17.6345 26.3207L13.8271 26.2918V27.1604Z" fill="black"/>
</svg>
