<svg width="122" height="35" viewBox="0 0 122 35" fill="none" xmlns="http://www.w3.org/2000/svg">
<line x1="36" y1="7" x2="36" y2="27" stroke="#FCC81C" stroke-width="2"/>
<path d="M44.012 12.053C44.7073 12.053 45.2977 12.1463 45.783 12.333C46.273 12.515 46.721 12.774 47.127 13.11L46 14.468C45.734 14.2487 45.44 14.076 45.118 13.95C44.796 13.8193 44.446 13.754 44.068 13.754C43.662 13.754 43.291 13.8707 42.955 14.104C42.619 14.3327 42.3507 14.6967 42.15 15.196C41.9493 15.6907 41.849 16.3347 41.849 17.128C41.849 17.9073 41.9447 18.5443 42.136 19.039C42.332 19.529 42.6003 19.8907 42.941 20.124C43.2817 20.3527 43.6713 20.467 44.11 20.467C44.5953 20.467 44.999 20.376 45.321 20.194C45.643 20.012 45.9393 19.8137 46.21 19.599L47.253 20.929C46.889 21.2883 46.441 21.5963 45.909 21.853C45.377 22.1097 44.7353 22.238 43.984 22.238C43.1067 22.238 42.3273 22.0443 41.646 21.657C40.9693 21.265 40.4373 20.691 40.05 19.935C39.6673 19.1743 39.476 18.2387 39.476 17.128C39.476 16.0453 39.6743 15.126 40.071 14.37C40.4723 13.614 41.016 13.04 41.702 12.648C42.388 12.2513 43.158 12.053 44.012 12.053ZM49.1445 22V20.516H50.1245V16.036H49.1445V14.566H51.8115L52.2175 16.239C52.4835 15.5997 52.8219 15.1237 53.2325 14.811C53.6479 14.4983 54.1542 14.342 54.7515 14.342C55.0035 14.342 55.2275 14.363 55.4235 14.405C55.6195 14.4423 55.8039 14.496 55.9765 14.566L55.3045 16.393C55.1692 16.3557 55.0339 16.3277 54.8985 16.309C54.7632 16.2903 54.6139 16.281 54.4505 16.281C53.9652 16.281 53.5382 16.4793 53.1695 16.876C52.8055 17.2727 52.5279 17.7767 52.3365 18.388V20.516H53.8065V22H49.1445ZM54.1775 17.674V15.504L54.5065 14.566H55.9765L55.5635 17.674H54.1775ZM65.1971 14.566L62.7191 22C62.4997 22.658 62.2081 23.2087 61.8441 23.652C61.4847 24.1 61.0344 24.4453 60.4931 24.688C59.9564 24.9307 59.3101 25.073 58.5541 25.115L58.3021 23.554C58.7921 23.4933 59.1864 23.4023 59.4851 23.281C59.7884 23.1597 60.0311 22.994 60.2131 22.784C60.3997 22.5787 60.5607 22.3173 60.6961 22H59.9401L57.5811 14.566H59.9191L61.3611 20.586L62.9291 14.566H65.1971ZM71.3796 14.321C72.0283 14.321 72.5509 14.482 72.9476 14.804C73.3443 15.126 73.6336 15.581 73.8156 16.169C74.0023 16.757 74.0956 17.4547 74.0956 18.262C74.0956 19.0273 73.9836 19.711 73.7596 20.313C73.5356 20.9103 73.2113 21.3817 72.7866 21.727C72.3619 22.0677 71.8463 22.238 71.2396 22.238C70.5163 22.238 69.9283 21.979 69.4756 21.461V24.87L67.2636 25.101V14.566H69.2236L69.3216 15.399C69.6249 15.0117 69.9563 14.7363 70.3156 14.573C70.6749 14.405 71.0296 14.321 71.3796 14.321ZM70.6936 15.952C70.4369 15.952 70.2106 16.029 70.0146 16.183C69.8186 16.337 69.6389 16.547 69.4756 16.813V19.949C69.6296 20.1777 69.7906 20.3457 69.9586 20.453C70.1313 20.5603 70.3343 20.614 70.5676 20.614C70.9596 20.614 71.2653 20.4367 71.4846 20.082C71.7039 19.7227 71.8136 19.1253 71.8136 18.29C71.8136 17.674 71.7693 17.198 71.6806 16.862C71.5919 16.5213 71.4636 16.2857 71.2956 16.155C71.1276 16.0197 70.9269 15.952 70.6936 15.952ZM83.0501 21.566C82.7608 21.7527 82.4108 21.9113 82.0001 22.042C81.5895 22.1727 81.1275 22.238 80.6141 22.238C79.6435 22.238 78.9225 21.9907 78.4511 21.496C77.9798 20.9967 77.7441 20.32 77.7441 19.466V16.092H76.1831V14.566H77.7441V12.956L79.9561 12.69V14.566H82.3501L82.1331 16.092H79.9561V19.466C79.9561 19.8347 80.0401 20.0983 80.2081 20.257C80.3761 20.4157 80.6445 20.495 81.0131 20.495C81.2745 20.495 81.5125 20.4647 81.7271 20.404C81.9465 20.3387 82.1425 20.257 82.3151 20.159L83.0501 21.566ZM88.6727 14.321C89.438 14.321 90.089 14.4843 90.6257 14.811C91.1623 15.1377 91.573 15.5973 91.8577 16.19C92.1423 16.778 92.2847 17.4687 92.2847 18.262C92.2847 19.088 92.14 19.7997 91.8507 20.397C91.566 20.9897 91.1553 21.4447 90.6187 21.762C90.082 22.0793 89.4333 22.238 88.6727 22.238C87.9167 22.238 87.268 22.0817 86.7267 21.769C86.19 21.4563 85.777 21.0037 85.4877 20.411C85.203 19.8183 85.0607 19.1067 85.0607 18.276C85.0607 17.4873 85.203 16.7967 85.4877 16.204C85.777 15.6113 86.19 15.1493 86.7267 14.818C87.268 14.4867 87.9167 14.321 88.6727 14.321ZM88.6727 15.952C88.22 15.952 87.884 16.1387 87.6647 16.512C87.45 16.8807 87.3427 17.4687 87.3427 18.276C87.3427 19.0973 87.45 19.6923 87.6647 20.061C87.884 20.4297 88.22 20.614 88.6727 20.614C89.1253 20.614 89.459 20.4297 89.6737 20.061C89.893 19.6923 90.0027 19.0927 90.0027 18.262C90.0027 17.4593 89.893 16.8737 89.6737 16.505C89.459 16.1363 89.1253 15.952 88.6727 15.952ZM98.9432 22V17.912H96.5912V22H94.2952V12.298H96.5912V16.022H98.9432V12.298H101.239V22H98.9432ZM105.854 14.566V19.655C105.854 20.0143 105.919 20.2617 106.05 20.397C106.185 20.5323 106.372 20.6 106.61 20.6C106.838 20.6 107.067 20.5277 107.296 20.383C107.524 20.2383 107.716 20.0423 107.87 19.795V14.566H110.082V22H108.15L108.052 21.132C107.8 21.496 107.468 21.7713 107.058 21.958C106.647 22.1447 106.218 22.238 105.77 22.238C105.051 22.238 104.517 22.0303 104.167 21.615C103.817 21.195 103.642 20.6327 103.642 19.928V14.566H105.854ZM114.948 15.329C115.182 15.021 115.462 14.776 115.788 14.594C116.12 14.412 116.474 14.321 116.852 14.321C117.492 14.321 118.012 14.482 118.413 14.804C118.819 15.126 119.118 15.581 119.309 16.169C119.501 16.757 119.596 17.4547 119.596 18.262C119.596 19.0273 119.482 19.711 119.253 20.313C119.029 20.9103 118.696 21.3817 118.252 21.727C117.809 22.0677 117.265 22.238 116.621 22.238C115.842 22.238 115.228 21.9347 114.78 21.328L114.696 22H112.736V11.612L114.948 11.381V15.329ZM116.04 20.628C116.432 20.628 116.743 20.4483 116.971 20.089C117.2 19.725 117.314 19.1253 117.314 18.29C117.314 17.674 117.265 17.198 117.167 16.862C117.074 16.5213 116.939 16.2857 116.761 16.155C116.589 16.0197 116.386 15.952 116.152 15.952C115.905 15.952 115.683 16.029 115.487 16.183C115.291 16.337 115.112 16.547 114.948 16.813V19.949C115.088 20.1683 115.245 20.3363 115.417 20.453C115.59 20.5697 115.798 20.628 116.04 20.628Z" fill="#FCC81C"/>
<circle cx="17.3379" cy="17.2439" r="16.8291" fill="white"/>
<path d="M15.7819 0.0311426C11.5547 0.494396 7.81973 2.2895 5.06916 5.18484C0.639299 9.83185 -1.01104 15.9121 0.610346 21.5145C1.04465 23.0346 2.01458 25.1047 2.92661 26.48C3.80969 27.8119 6.05358 30.0558 7.50124 31.0402C12.6549 34.587 19.2418 35.0792 24.9167 32.3865C26.8855 31.4455 27.9713 30.6927 29.5203 29.2016C32.8933 25.9154 34.674 21.7896 34.674 17.215C34.674 15.2461 34.5292 14.2328 34.008 12.4377C32.6762 7.81959 29.5782 4.05566 25.3365 1.92759C24.0191 1.27614 22.0937 0.595733 20.7329 0.320676C19.6037 0.0890494 16.7953 -0.0701941 15.7819 0.0311426ZM21.2251 1.86968C27.9568 3.62136 32.4735 8.78953 33.2408 15.637C33.5303 18.2718 33.0236 21.3119 31.851 23.7295C30.0559 27.4789 26.5815 30.5045 22.5136 31.8654C19.2997 32.9366 15.2463 32.9366 12.1193 31.8798C6.74846 30.0413 2.65156 25.3364 1.59476 19.7339C0.711682 15.0435 2.46336 9.73052 6.15491 6.01001C8.10927 4.04118 10.2084 2.81066 12.8866 2.0434C14.8699 1.47881 15.4634 1.40643 17.7363 1.46433C19.3866 1.49329 20.1249 1.58015 21.2251 1.86968Z" fill="black"/>
<path d="M13.8569 7.42866L13.9003 8.26831H17.6643H21.4282L21.4716 7.42866L21.5151 6.60349H17.6643H13.8135L13.8569 7.42866Z" fill="black"/>
<path d="M10.4835 11.5546C9.73071 12.3797 8.22513 14.0156 7.13938 15.2027L5.1416 17.3597L5.96677 18.2428C6.41555 18.7205 7.92112 20.3564 9.32536 21.8475L11.8733 24.5691L13.2196 23.1504C13.9579 22.3686 14.7541 21.4856 15.0002 21.1815L15.449 20.6459H13.9289C12.5826 20.6459 12.3944 20.6749 12.1483 20.9499L11.8733 21.2539L11.3666 20.6749C11.0915 20.3564 10.2808 19.4733 9.57147 18.706L8.29752 17.3163L10.0637 15.4054C11.0481 14.3486 11.8877 13.4655 11.9456 13.4365C12.0035 13.422 14.508 15.8976 17.5336 18.9666L23.0203 24.5257L26.2052 20.9934C27.9568 19.068 29.39 17.3887 29.39 17.2728C29.39 17.0846 23.4836 10.4978 23.194 10.353C23.1361 10.324 21.978 11.4967 20.6316 12.9733L18.1851 15.6515L19.3722 15.6949L20.5593 15.7383L21.0515 15.1882C21.3265 14.8842 21.9056 14.2617 22.3254 13.7984L23.1072 12.9443L24.3666 14.3051C25.0615 15.0434 25.988 16.0279 26.4078 16.4766L27.1751 17.3018L25.1049 19.5602C23.9758 20.7907 22.9913 21.7896 22.9334 21.7751C22.8755 21.7461 21.7608 20.588 20.4579 19.1838C17.2152 15.6949 11.9312 10.0779 11.8733 10.0779C11.8443 10.0779 11.2218 10.7439 10.4835 11.5546Z" fill="black"/>
<path d="M13.8271 27.1604V28.029H17.6635H21.5143L21.4708 27.1893L21.4274 26.3642L17.6345 26.3207L13.8271 26.2918V27.1604Z" fill="black"/>
</svg>
